<svg width="250" height="60" viewBox="0 0 250 60" fill="none" xmlns="http://www.w3.org/2000/svg">
<g clip-path="url(#clip0_5_2)">
<rect width="250" height="60" fill="white"/>
<path d="M49.9531 49H37.8125L25.2969 24.8594H25.0859C25.1641 25.5938 25.2344 26.4766 25.2969 27.5078C25.3594 28.5391 25.4141 29.5938 25.4609 30.6719C25.5078 31.7344 25.5312 32.6953 25.5312 33.5547V49H17.3281V14.7344H29.4219L41.8906 38.5469H42.0312C41.9844 37.7969 41.9375 36.9297 41.8906 35.9453C41.8438 34.9453 41.7969 33.9375 41.75 32.9219C41.7188 31.9062 41.7031 31.0078 41.7031 30.2266V14.7344H49.9531V49ZM82.6484 22.4453V49H75.7344L74.5859 45.6953H74.0469C73.5 46.5859 72.8047 47.3125 71.9609 47.875C71.1328 48.4219 70.2109 48.8203 69.1953 49.0703C68.1797 49.3359 67.125 49.4688 66.0312 49.4688C64.2969 49.4688 62.7266 49.1328 61.3203 48.4609C59.9297 47.7891 58.8203 46.7344 57.9922 45.2969C57.1797 43.8594 56.7734 42.0078 56.7734 39.7422V22.4453H65.9375V36.9531C65.9375 38.6719 66.1797 39.9844 66.6641 40.8906C67.1641 41.7812 67.9766 42.2266 69.1016 42.2266C70.2578 42.2266 71.1484 41.9141 71.7734 41.2891C72.4141 40.6641 72.8594 39.7422 73.1094 38.5234C73.3594 37.3047 73.4844 35.8203 73.4844 34.0703V22.4453H82.6484ZM121.391 21.9766C124.422 21.9766 126.734 22.75 128.328 24.2969C129.938 25.8438 130.742 28.3203 130.742 31.7266V49H121.578V34.5625C121.578 32.5469 121.305 31.1484 120.758 30.3672C120.227 29.5703 119.43 29.1719 118.367 29.1719C116.883 29.1719 115.852 29.8203 115.273 31.1172C114.711 32.4141 114.43 34.25 114.43 36.625V49H105.242V34.5625C105.242 33.2812 105.125 32.25 104.891 31.4688C104.672 30.6719 104.336 30.0938 103.883 29.7344C103.43 29.3594 102.859 29.1719 102.172 29.1719C101.125 29.1719 100.305 29.4922 99.7109 30.1328C99.1328 30.7578 98.7266 31.6797 98.4922 32.8984C98.2578 34.1172 98.1406 35.6094 98.1406 37.375V49H88.9766V22.4453H95.8906L97.2266 25.7266H97.4844C97.9531 25.0078 98.5547 24.3672 99.2891 23.8047C100.039 23.2422 100.922 22.7969 101.938 22.4688C102.969 22.1406 104.141 21.9766 105.453 21.9766C107.406 21.9766 109.016 22.3047 110.281 22.9609C111.547 23.6172 112.578 24.5234 113.375 25.6797H113.656C114.5 24.4922 115.586 23.5781 116.914 22.9375C118.242 22.2969 119.734 21.9766 121.391 21.9766ZM148.93 21.9766C151.508 21.9766 153.734 22.4297 155.609 23.3359C157.484 24.2266 158.93 25.5703 159.945 27.3672C160.961 29.1641 161.469 31.4141 161.469 34.1172V38.1953H145.086C145.164 39.5859 145.68 40.7266 146.633 41.6172C147.602 42.5078 149.023 42.9531 150.898 42.9531C152.555 42.9531 154.07 42.7891 155.445 42.4609C156.836 42.1328 158.266 41.625 159.734 40.9375V47.5234C158.453 48.1953 157.055 48.6875 155.539 49C154.023 49.3125 152.109 49.4688 149.797 49.4688C147.125 49.4688 144.734 48.9922 142.625 48.0391C140.516 47.0859 138.852 45.6094 137.633 43.6094C136.43 41.6094 135.828 39.0391 135.828 35.8984C135.828 32.7109 136.375 30.0938 137.469 28.0469C138.562 25.9844 140.094 24.4609 142.062 23.4766C144.031 22.4766 146.32 21.9766 148.93 21.9766ZM149.258 28.2109C148.18 28.2109 147.273 28.5547 146.539 29.2422C145.82 29.9141 145.398 30.9766 145.273 32.4297H153.148C153.133 31.6484 152.977 30.9375 152.68 30.2969C152.383 29.6562 151.945 29.1484 151.367 28.7734C150.805 28.3984 150.102 28.2109 149.258 28.2109ZM182.68 21.9766C183.18 21.9766 183.703 22.0156 184.25 22.0938C184.797 22.1562 185.203 22.2109 185.469 22.2578L184.648 30.9062C184.352 30.8281 183.969 30.7656 183.5 30.7188C183.031 30.6562 182.375 30.625 181.531 30.625C180.953 30.625 180.336 30.6797 179.68 30.7891C179.023 30.8984 178.398 31.1328 177.805 31.4922C177.227 31.8359 176.75 32.3672 176.375 33.0859C176 33.7891 175.812 34.7422 175.812 35.9453V49H166.648V22.4453H173.469L174.898 26.6875H175.344C175.828 25.8125 176.445 25.0234 177.195 24.3203C177.961 23.6016 178.812 23.0312 179.75 22.6094C180.703 22.1875 181.68 21.9766 182.68 21.9766ZM236.211 49H225.5L218.82 38.2891L212.211 49H201.734L213.102 31.4688L202.414 14.7344H212.68L218.867 25.3281L224.82 14.7344H235.391L224.539 32.1953L236.211 49Z" fill="black"/>
<path d="M198.406 22.4453V49H189.242V22.4453H198.406ZM193.859 11.7578C195.172 11.7578 196.312 12.0312 197.281 12.5781C198.266 13.125 198.758 14.2109 198.758 15.8359C198.758 17.4141 198.266 18.4844 197.281 19.0469C196.312 19.5938 195.172 19.8672 193.859 19.8672C192.516 19.8672 191.367 19.5938 190.414 19.0469C189.477 18.4844 189.008 17.4141 189.008 15.8359C189.008 14.2109 189.477 13.125 190.414 12.5781C191.367 12.0312 192.516 11.7578 193.859 11.7578Z" fill="#B7B9FA"/>
</g>
<defs>
<clipPath id="clip0_5_2">
<rect width="250" height="60" fill="white"/>
</clipPath>
</defs>
</svg>
